<svg width="100" height="85" viewBox="0 0 100 85" fill="none" xmlns="http://www.w3.org/2000/svg">
<path d="M5.38462 39.9876V39.3106C5.38462 38.8894 5.3997 38.3779 5.42986 37.7761C5.46003 37.1442 5.47511 36.5274 5.47511 35.9257C5.50528 35.2938 5.53544 34.7522 5.56561 34.3009C5.59578 33.8195 5.61086 33.5035 5.61086 33.3531V32.2699C5.61086 31.8788 5.56561 31.5177 5.47511 31.1867C5.41478 30.8558 5.38462 30.4796 5.38462 30.0584C5.38462 29.6071 5.41478 29.1708 5.47511 28.7496C5.56561 28.2982 5.61086 27.8319 5.61086 27.3504V27.1248C5.61086 27.0345 5.56561 26.8088 5.47511 26.4478C5.41478 26.0867 5.38462 25.8611 5.38462 25.7708C5.38462 25.7708 5.36953 25.6956 5.33937 25.5451C5.33937 25.3646 5.32428 25.169 5.29412 24.9584C5.29412 24.7177 5.27904 24.492 5.24887 24.2814C5.24887 24.0407 5.24887 23.8602 5.24887 23.7398C5.24887 22.9274 5.3092 22.2655 5.42986 21.754C5.55053 21.2425 5.61086 20.6106 5.61086 19.8584C5.61086 19.377 5.56561 18.8956 5.47511 18.4142C5.41478 17.9027 5.38462 17.3611 5.38462 16.7894C5.38462 16.0973 5.41478 15.4354 5.47511 14.8035C5.56561 14.1416 5.61086 13.3743 5.61086 12.5018C5.61086 11.5389 5.59578 10.6814 5.56561 9.9292C5.56561 9.17699 5.50528 8.28938 5.38462 7.26637C5.02262 6.81504 4.52489 6.46903 3.8914 6.22832C3.28808 5.95752 2.69985 5.71681 2.1267 5.50619C1.55354 5.29558 1.05581 5.06991 0.633484 4.8292C0.211161 4.5885 0 4.25752 0 3.83628V3.52035C0 3.33982 0.0452489 3.05398 0.135747 2.66283C0.25641 2.27168 0.316742 2.04602 0.316742 1.98584C0.346908 1.8354 0.482655 1.71504 0.723982 1.62478C0.995475 1.50442 1.16139 1.41416 1.22172 1.35398C2.36802 1.02301 3.51433 0.827434 4.66063 0.767257C5.80694 0.676991 6.96833 0.631858 8.1448 0.631858H11.629C12.1116 0.631858 12.5792 0.586726 13.0317 0.49646C13.5143 0.376106 13.997 0.315929 14.4796 0.315929C14.6606 0.315929 14.9925 0.330973 15.4751 0.361062C15.9879 0.361062 16.5309 0.361062 17.1041 0.361062C17.6772 0.361062 18.2202 0.376106 18.733 0.406195C19.2459 0.406195 19.6229 0.406195 19.8643 0.406195C20.3771 0.49646 20.9502 0.676991 21.5837 0.947788C22.2172 1.1885 22.7602 1.44425 23.2127 1.71504C23.3635 1.86549 23.454 2.03097 23.4842 2.2115C23.5143 2.36195 23.5294 2.51239 23.5294 2.66283V3.06903C23.5294 3.61062 23.4389 3.95664 23.2579 4.10708C23.0769 4.25752 22.7602 4.51327 22.3077 4.87434C22.0965 4.93451 21.7949 5.06991 21.4027 5.28053C21.0106 5.46106 20.7843 5.55133 20.724 5.55133C20.6637 5.6115 20.4676 5.68673 20.1357 5.77699C19.8341 5.83717 19.6078 5.89735 19.457 5.95752C19.3967 5.95752 19.276 5.97257 19.095 6.00266C18.914 6.03274 18.7179 6.07788 18.5068 6.13805C18.2956 6.16814 18.0995 6.21327 17.9186 6.27345C17.7376 6.33363 17.632 6.37876 17.6018 6.40885C17.2398 6.55929 16.908 6.8 16.6063 7.13097C16.3047 7.46195 16.0332 7.8531 15.7919 8.30442C15.5505 8.72566 15.3544 9.17699 15.2036 9.65841C15.083 10.1097 15.0226 10.5159 15.0226 10.877C15.0226 11.4186 15.0528 11.915 15.1131 12.3664C15.1735 12.7876 15.264 13.2991 15.3846 13.9009V27.6664C15.2036 28.0876 15.098 28.4938 15.0679 28.885C15.0377 29.2761 15.0226 29.7274 15.0226 30.2389V31.5027C15.1735 33.669 15.3846 35.8956 15.6561 38.1823C15.9276 40.469 16.4706 42.6354 17.2851 44.6814C17.2851 44.7416 17.3906 44.9071 17.6018 45.1779C17.813 45.4186 17.9186 45.569 17.9186 45.6292C17.9487 45.6292 17.994 45.7044 18.0543 45.8549C18.1146 46.0053 18.175 46.1708 18.2353 46.3513C18.2956 46.5319 18.356 46.7124 18.4163 46.8929C18.4766 47.0434 18.5219 47.1336 18.552 47.1637C18.733 47.6752 18.9894 48.1566 19.3213 48.608C19.6531 49.0292 19.9095 49.4956 20.0905 50.0071C20.0905 50.0372 20.1056 50.1124 20.1357 50.2327C20.1659 50.3531 20.1961 50.4885 20.2262 50.6389C20.2564 50.7593 20.2866 50.8796 20.3167 51C20.3469 51.0903 20.3771 51.1504 20.4072 51.1805C20.5581 51.5416 20.724 51.8274 20.905 52.0381C21.1161 52.2487 21.3273 52.4292 21.5385 52.5796C21.7798 52.7 22.0362 52.8204 22.3077 52.9407C22.5792 53.0611 22.8808 53.2265 23.2127 53.4372L23.5294 53.7531C23.6802 53.7832 23.8612 53.8434 24.0724 53.9336C24.2836 54.0239 24.4495 54.069 24.5701 54.069C24.6908 54.069 25.0075 54.0991 25.5204 54.1593C26.0332 54.2195 26.5762 54.2947 27.1493 54.385C27.7526 54.4451 28.3107 54.5053 28.8235 54.5655C29.3665 54.6257 29.6983 54.6558 29.819 54.6558C29.8492 54.6558 30 54.7159 30.2715 54.8363C30.5732 54.9266 30.7541 54.9717 30.8145 54.9717C30.9653 55.0319 31.1765 55.1071 31.448 55.1973C31.7195 55.2575 31.9909 55.3177 32.2624 55.3779C32.5339 55.4381 32.7753 55.4982 32.9864 55.5584C33.1976 55.5885 33.3182 55.6035 33.3484 55.6035C33.5596 55.5734 33.7707 55.5283 33.9819 55.4681C34.1327 55.438 34.2986 55.408 34.4796 55.3779C34.6606 55.3478 34.7964 55.3177 34.8869 55.2876C35.7315 55.1071 36.5008 54.8513 37.1946 54.5204C37.9186 54.1593 38.5973 53.7681 39.2308 53.3469C39.8643 52.8956 40.4827 52.4142 41.086 51.9027C41.7195 51.3912 42.368 50.8646 43.0317 50.323C43.454 49.9619 43.9517 49.6159 44.5249 49.285C45.1282 48.954 45.5656 48.5327 45.8371 48.0212C45.8974 48.0212 45.9578 47.9159 46.0181 47.7053C46.1086 47.4947 46.184 47.3142 46.2443 47.1637C46.365 46.7124 46.5158 46.1858 46.6968 45.5841C46.908 44.9823 47.0437 44.4407 47.1041 43.9593C47.1342 43.8991 47.1644 43.7637 47.1946 43.5531C47.2549 43.3425 47.3002 43.1168 47.3303 42.8761C47.3605 42.6354 47.3756 42.4097 47.3756 42.1991C47.4057 41.9885 47.4208 41.8531 47.4208 41.7929C47.451 41.7628 47.5113 41.6575 47.6018 41.477C47.7225 41.2965 47.8431 41.1159 47.9638 40.9354C48.0845 40.7248 48.19 40.5292 48.2805 40.3487C48.371 40.1681 48.4163 40.0478 48.4163 39.9876C48.4465 39.8973 48.4766 39.7018 48.5068 39.4009C48.537 39.1 48.5671 38.769 48.5973 38.408C48.6275 38.0469 48.6425 37.6858 48.6425 37.3248C48.6727 36.9637 48.6878 36.6779 48.6878 36.4673C48.6878 36.4372 48.6878 36.3168 48.6878 36.1062C48.7179 35.8655 48.733 35.5947 48.733 35.2938C48.7632 34.9929 48.7783 34.7071 48.7783 34.4363C48.8084 34.1354 48.8235 33.9097 48.8235 33.7593C48.8235 32.7965 48.7481 31.8186 48.5973 30.8257C48.4766 29.8327 48.4163 28.8549 48.4163 27.892V26.8088C48.4163 26.5681 48.4163 26.3425 48.4163 26.1319C48.4465 25.8912 48.537 25.6956 48.6878 25.5451C48.8084 24.2513 48.8989 22.8673 48.9593 21.3929C49.0196 19.9186 49.0498 18.4894 49.0498 17.1053C49.0498 16.9549 49.0498 16.7593 49.0498 16.5186C49.0498 16.2779 49.0347 16.1124 49.0045 16.0221C49.0045 15.992 48.9744 15.8717 48.914 15.6611C48.8537 15.4504 48.7783 15.2248 48.6878 14.9841C48.6274 14.7434 48.5671 14.5177 48.5068 14.3071C48.4465 14.0965 48.4163 13.9611 48.4163 13.9009C48.3861 13.7504 48.356 13.4796 48.3258 13.0885C48.2956 12.6973 48.2805 12.2912 48.2805 11.8699C48.2805 11.4487 48.2956 11.0425 48.3258 10.6513C48.356 10.2301 48.3861 9.94425 48.4163 9.79381C48.2655 9.46283 48.0694 9.02655 47.8281 8.48496C47.5867 7.94336 47.27 7.53717 46.8778 7.26637C46.727 7.17611 46.546 7.0708 46.3348 6.95044C46.1237 6.83009 45.8974 6.70973 45.6561 6.58938C45.4449 6.43894 45.2338 6.31858 45.0226 6.22832C44.8416 6.13805 44.7059 6.09292 44.6154 6.09292C44.555 6.09292 44.4193 6.07788 44.2081 6.04779C43.997 5.98761 43.7557 5.94248 43.4842 5.91239C43.2428 5.8823 43.0166 5.85221 42.8054 5.82212C42.5943 5.76195 42.4585 5.73186 42.3982 5.73186C42.368 5.73186 42.2775 5.70177 42.1267 5.64159C42.006 5.55133 41.9155 5.47611 41.8552 5.41593C41.6742 5.26549 41.3876 5.03982 40.9955 4.73894C40.6033 4.43805 40.2413 4.24248 39.9095 4.15221C39.7285 4.09204 39.5023 4.0469 39.2308 4.01681C38.9894 3.98673 38.7481 3.94159 38.5068 3.88142C38.2956 3.79115 38.0995 3.6708 37.9186 3.52035C37.7677 3.33982 37.6923 3.08407 37.6923 2.7531C37.6923 2.60265 37.7677 2.40708 37.9186 2.16637C38.0694 1.89558 38.2655 1.63982 38.5068 1.39912C38.7481 1.15841 39.0196 0.947788 39.3213 0.767257C39.6229 0.586726 39.9246 0.49646 40.2262 0.49646C41.1916 0.49646 41.9306 0.481416 42.4434 0.451327C42.9864 0.421239 43.4992 0.406195 43.9819 0.406195H49.6833C49.7134 0.406195 49.8341 0.39115 50.0452 0.361062C50.2564 0.330973 50.4827 0.300885 50.724 0.270796C50.9955 0.240708 51.2217 0.210619 51.4027 0.180531C51.6139 0.120354 51.7496 0.060177 51.81 0H52.4434C52.8356 0 53.2127 0.0752212 53.5747 0.225664C53.9367 0.346018 54.3137 0.406195 54.7059 0.406195C55.1885 0.406195 55.641 0.346018 56.0633 0.225664C56.5158 0.0752212 56.9985 0 57.5113 0C58.7481 0 59.9246 0.255752 61.0407 0.767257C62.1569 1.24867 63.092 1.95575 63.8462 2.8885C63.8462 2.94867 63.8763 3.11416 63.9367 3.38496C64.0272 3.62566 64.1026 3.77611 64.1629 3.83628V4.15221C64.1026 4.21239 64.0272 4.33274 63.9367 4.51327C63.8763 4.66372 63.8462 4.78407 63.8462 4.87434C63.7255 4.93451 63.5143 5.03982 63.2127 5.19027C62.911 5.34071 62.5943 5.49115 62.2624 5.64159C61.9306 5.79204 61.5988 5.94248 61.267 6.09292C60.9653 6.24336 60.7541 6.34867 60.6335 6.40885C60.2413 6.5292 59.8492 6.60442 59.457 6.63451C59.0649 6.63451 58.6727 6.6646 58.2805 6.72478C57.9186 6.78496 57.5566 6.90531 57.1946 7.08584C56.8627 7.26637 56.546 7.56726 56.2443 7.9885C56.2142 8.13894 56.1689 8.40973 56.1086 8.80089C56.0483 9.19204 55.9879 9.62832 55.9276 10.1097C55.8673 10.5912 55.8069 11.0425 55.7466 11.4637C55.6863 11.885 55.6561 12.1858 55.6561 12.3664V15.4805C55.6561 15.5708 55.641 15.7513 55.6109 16.0221C55.5807 16.2929 55.5354 16.5788 55.4751 16.8796C55.4449 17.1805 55.4148 17.4664 55.3846 17.7372C55.3545 18.008 55.3394 18.1885 55.3394 18.2788C55.3394 18.3389 55.3846 18.5044 55.4751 18.7752C55.5958 19.046 55.6561 19.2265 55.6561 19.3168V20.1743C55.6561 20.2646 55.641 20.4451 55.6109 20.7159C55.5807 20.9867 55.5354 21.2726 55.4751 21.5735C55.4449 21.8743 55.4148 22.1602 55.3846 22.431C55.3545 22.7018 55.3394 22.8823 55.3394 22.9726C55.279 23.454 55.2489 24.2814 55.2489 25.4549C55.2489 26.6283 55.2489 27.8619 55.2489 29.1558C55.2489 29.7876 55.2489 30.4195 55.2489 31.0513C55.2489 31.6832 55.2489 32.2699 55.2489 32.8115C55.2489 33.3531 55.2489 33.8345 55.2489 34.2558C55.279 34.6469 55.3092 34.9478 55.3394 35.1584C55.2489 35.4292 55.1282 35.8204 54.9774 36.3319C54.8567 36.8434 54.7662 37.2044 54.7059 37.415L54.0724 45.9451C53.8914 46.1858 53.7406 46.4566 53.6199 46.7575C53.4992 47.0584 53.3937 47.3894 53.3032 47.7504C53.2127 48.0814 53.1222 48.4124 53.0317 48.7434C52.9713 49.0442 52.8959 49.3301 52.8054 49.6009C52.8054 49.6611 52.7602 49.7814 52.6697 49.9619C52.6093 50.1124 52.549 50.2327 52.4887 50.323C51.9457 51.2858 51.4027 52.2938 50.8597 53.3469C50.3469 54.4 49.7285 55.3628 49.0045 56.2354C48.9744 56.2655 48.8989 56.3407 48.7783 56.4611C48.6878 56.5814 48.5822 56.7168 48.4615 56.8673C48.3409 56.9876 48.2202 57.123 48.0995 57.2735C47.9789 57.3938 47.8884 57.4841 47.8281 57.5442C47.7677 57.5743 47.6772 57.6345 47.5566 57.7248C47.4359 57.815 47.3002 57.9053 47.1493 57.9956C47.0287 58.0858 46.908 58.1761 46.7873 58.2664C46.6667 58.3566 46.5913 58.4018 46.5611 58.4018C46.5008 58.4619 46.3952 58.5673 46.2443 58.7177C46.0935 58.8681 45.9276 59.0336 45.7466 59.2142C45.5656 59.3947 45.3997 59.5602 45.2489 59.7106C45.098 59.8611 45.0075 59.9513 44.9774 59.9814C44.917 60.0115 44.7813 60.0416 44.5701 60.0717C44.3891 60.1018 44.1931 60.1469 43.9819 60.2071C43.7707 60.2372 43.5596 60.2673 43.3484 60.2973C43.1674 60.3274 43.0618 60.3575 43.0317 60.3876C42.6395 60.4478 42.2775 60.6283 41.9457 60.9292C41.6139 61.2 41.2519 61.4106 40.8597 61.5611C40.7994 61.5611 40.6637 61.5912 40.4525 61.6513C40.2413 61.7115 40 61.7867 39.7285 61.877C39.457 61.9372 39.1855 62.0124 38.914 62.1027C38.6425 62.1628 38.4465 62.208 38.3258 62.2381C37.994 62.2982 37.5716 62.3735 37.0588 62.4637C36.546 62.5239 36.1086 62.6292 35.7466 62.7796C35.4449 62.9301 35.2036 63.0655 35.0226 63.1858C34.8718 63.3363 34.7059 63.4566 34.5249 63.5469C34.3741 63.6372 34.2081 63.6973 34.0271 63.7274C33.8462 63.7876 33.5897 63.8177 33.2579 63.8177H32.0814C31.9909 63.8177 31.825 63.8027 31.5837 63.7726C31.3424 63.7425 31.0709 63.6973 30.7692 63.6372C30.4977 63.6071 30.2413 63.577 30 63.5469C29.7587 63.5168 29.5928 63.5018 29.5023 63.5018H26.1086C26.0784 63.5018 25.9879 63.4867 25.8371 63.4566C25.7164 63.4265 25.5807 63.3814 25.4299 63.3212C25.3092 63.2911 25.1735 63.2611 25.0226 63.231C24.902 63.2009 24.8265 63.1858 24.7964 63.1858H21.9909C21.9306 63.1257 21.7647 63.0204 21.4932 62.8699C21.2519 62.6894 21.1011 62.554 21.0407 62.4637C20.1056 62.0124 19.2459 61.6062 18.4615 61.2451C17.6772 60.8841 16.9231 60.508 16.1991 60.1168C15.4751 59.6956 14.736 59.2292 13.9819 58.7177C13.2579 58.2062 12.4736 57.5894 11.629 56.8673C11.5988 56.8372 11.5083 56.792 11.3575 56.7319C11.2368 56.6416 11.1011 56.5513 10.9502 56.4611C10.8296 56.3407 10.6938 56.2504 10.543 56.1903C10.4223 56.1 10.3469 56.0398 10.3167 56.0097C10.0151 55.7389 9.77376 55.423 9.59276 55.0619C9.41176 54.7009 9.24585 54.3248 9.09502 53.9336C8.94419 53.5124 8.79336 53.1062 8.64253 52.715C8.52187 52.2938 8.37104 51.9027 8.19005 51.5416C8.12971 51.4814 8.02413 51.346 7.8733 51.1354C7.75264 50.9248 7.61689 50.6991 7.46606 50.4584C7.3454 50.1876 7.22474 49.9469 7.10407 49.7363C7.01357 49.5257 6.96833 49.4053 6.96833 49.3752C6.69683 48.954 6.50075 48.4876 6.38009 47.9761C6.25943 47.4646 6.16893 46.9381 6.1086 46.3965C6.07843 45.8549 6.04827 45.3283 6.0181 44.8168C6.0181 44.3053 5.98793 43.8239 5.9276 43.3726C5.9276 43.3124 5.89744 43.1168 5.8371 42.7858C5.77677 42.4248 5.71644 42.0487 5.65611 41.6575C5.59578 41.2664 5.53544 40.9053 5.47511 40.5743C5.41478 40.2434 5.38462 40.0478 5.38462 39.9876Z" fill="#E6DDC4"/>
<path d="M72.8054 84.3681H63.2127C63.1222 84.3381 62.9864 84.2929 62.8054 84.2327C62.6546 84.1726 62.4736 84.1124 62.2624 84.0522C62.0513 83.962 61.8552 83.8867 61.6742 83.8265C61.5234 83.7664 61.4027 83.7062 61.3122 83.646H60.905C60.0905 83.9469 59.2911 84.1425 58.5068 84.2327C57.7225 84.323 56.8627 84.3681 55.9276 84.3681C55.3846 84.3681 54.7662 84.3381 54.0724 84.2779C53.4087 84.1876 52.7602 84.0221 52.1267 83.7814C51.5234 83.5407 51.0106 83.2097 50.5882 82.7885C50.1659 82.3673 49.9548 81.7956 49.9548 81.0734C49.9548 80.5319 50.1357 80.0354 50.4977 79.5841C50.8899 79.1027 51.3424 78.8168 51.8552 78.7265C52.006 78.7265 52.3077 78.7115 52.7602 78.6814C53.2127 78.6513 53.6802 78.6212 54.1629 78.5911C54.6757 78.5611 55.1433 78.531 55.5656 78.5009C56.0181 78.4708 56.3348 78.4557 56.5158 78.4557C57.0287 78.3655 57.4661 78.2 57.8281 77.9593C58.19 77.6885 58.5068 77.3726 58.7783 77.0115C59.0498 76.6504 59.276 76.2743 59.457 75.8832C59.6682 75.4619 59.8643 75.0407 60.0452 74.6195C60.0151 74.3788 59.9849 73.9425 59.9548 73.3106C59.9246 72.6788 59.9095 72.0168 59.9095 71.3248C59.9095 70.6327 59.9246 69.9858 59.9548 69.3841C59.9849 68.7823 60.0151 68.331 60.0452 68.0301C60.0452 67.9097 60.0754 67.6088 60.1357 67.1274C60.1961 66.6159 60.2564 66.0743 60.3167 65.5027C60.3771 64.931 60.4374 64.4044 60.4977 63.923C60.5581 63.4416 60.5882 63.1257 60.5882 62.9752V62.7496C60.5882 62.6593 60.543 62.4788 60.4525 62.208C60.362 61.9372 60.3167 61.7717 60.3167 61.7115V61.3956C60.3167 61.1248 60.362 60.869 60.4525 60.6283C60.543 60.3575 60.5882 60.0416 60.5882 59.6805C60.5882 59.2894 60.543 58.9133 60.4525 58.5522C60.362 58.1912 60.3167 57.815 60.3167 57.4239V56.7469C60.3469 56.5965 60.3922 56.2053 60.4525 55.5735C60.5128 54.9115 60.5732 54.2044 60.6335 53.4522C60.724 52.7 60.7843 52.008 60.8145 51.3761C60.8748 50.7142 60.905 50.2929 60.905 50.1124V46.4115C60.9653 45.7195 61.1011 45.0575 61.3122 44.4257C61.5234 43.7938 61.629 43.1319 61.629 42.4398C61.629 41.9283 61.5535 41.5221 61.4027 41.2212C61.2821 40.8903 61.2217 40.469 61.2217 39.9575C61.2217 39.7168 61.2368 39.4911 61.267 39.2805C61.2971 39.0398 61.4178 38.8142 61.629 38.6035V31.3372C61.629 31.3071 61.5837 31.1867 61.4932 30.9761C61.4329 30.7655 61.3726 30.585 61.3122 30.4345C61.1614 30.0735 61.0106 29.6673 60.8597 29.2159C60.7391 28.7646 60.4676 28.4336 60.0452 28.223C59.9548 28.1929 59.8039 28.1327 59.5928 28.0425C59.4118 27.9522 59.2006 27.8619 58.9593 27.7717C58.7179 27.6513 58.4766 27.546 58.2353 27.4558C58.0241 27.3655 57.8733 27.3053 57.7828 27.2752H55.1131C53.2127 27.2752 51.4027 27.3354 49.6833 27.4558C47.9638 27.546 46.184 27.5912 44.3439 27.5912H42.4434C41.6893 28.0124 41.0407 28.4487 40.4977 28.9C39.9849 29.3212 39.4872 29.8327 39.0045 30.4345C38.9442 30.4345 38.8688 30.5097 38.7783 30.6602C38.7179 30.8106 38.6576 30.9159 38.5973 30.9761C38.4766 31.3071 38.3861 31.5779 38.3258 31.7885C38.2655 31.9991 38.19 32.1947 38.0995 32.3752C38.0392 32.5558 37.9487 32.7363 37.8281 32.9168C37.7074 33.0673 37.5566 33.2779 37.3756 33.5487C37.0437 33.9699 36.6968 34.4062 36.3348 34.8575C36.003 35.2788 35.641 35.685 35.2489 36.0761C34.8567 36.4673 34.4193 36.7832 33.9367 37.0239C33.454 37.2646 32.9261 37.385 32.3529 37.385C31.9306 37.385 31.5535 37.2947 31.2217 37.1142C30.9201 36.9336 30.7692 36.5726 30.7692 36.031V35.8053C30.7692 35.6248 30.7843 35.369 30.8145 35.0381C30.8446 34.677 30.8748 34.3159 30.905 33.9549C30.9653 33.5938 31.0106 33.2628 31.0407 32.9619C31.0709 32.631 31.086 32.4053 31.086 32.285C31.1161 32.1345 31.1312 31.9389 31.1312 31.6982C31.1614 31.4575 31.1916 31.2319 31.2217 31.0212C31.2519 30.7805 31.267 30.5699 31.267 30.3894C31.2971 30.2088 31.3122 30.1186 31.3122 30.1186C31.4027 30.0584 31.5837 29.908 31.8552 29.6673C32.1267 29.3965 32.2926 29.231 32.3529 29.1708C32.3831 29.1106 32.4585 28.915 32.5792 28.5841C32.73 28.2531 32.8658 27.892 32.9864 27.5009C33.1373 27.1097 33.273 26.7487 33.3937 26.4177C33.5143 26.0566 33.5897 25.831 33.6199 25.7407V24.1611C33.6501 23.8301 33.7707 23.6044 33.9819 23.4841C34.1931 23.3336 34.4042 23.1381 34.6154 22.8973C34.8869 22.5363 35.1282 22.1752 35.3394 21.8142C35.5505 21.423 35.7919 21.077 36.0633 20.7761C36.3348 20.4451 36.6516 20.1743 37.0136 19.9637C37.3756 19.7531 37.8281 19.6478 38.371 19.6478C38.8537 19.6478 39.3062 19.7531 39.7285 19.9637C40.1508 20.1442 40.5581 20.385 40.9502 20.6858C41.3725 20.9566 41.7798 21.2425 42.1719 21.5434C42.5641 21.8142 42.9713 22.0398 43.3937 22.2204C43.454 22.2504 43.5596 22.2805 43.7104 22.3106C43.8914 22.3106 44.0724 22.3106 44.2534 22.3106C44.4344 22.3106 44.6003 22.3106 44.7511 22.3106C44.902 22.3106 44.9925 22.3106 45.0226 22.3106C45.7164 22.3106 46.3047 22.2504 46.7873 22.1301C47.3002 21.9796 47.8582 21.9044 48.4615 21.9044C49.6983 21.9044 50.905 22.0248 52.0814 22.2655C53.2579 22.5062 54.4796 22.6265 55.7466 22.6265C56.2594 22.6265 56.7722 22.5664 57.2851 22.446C57.8281 22.2956 58.356 22.2204 58.8688 22.2204H59.0498C59.5626 22.2504 60.2112 22.2956 60.9955 22.3558C61.81 22.3858 62.5943 22.431 63.3484 22.4911C64.1327 22.5212 64.8115 22.5513 65.3846 22.5814C65.9578 22.6115 66.2745 22.6265 66.3348 22.6265C66.365 22.6265 66.4706 22.6416 66.6516 22.6717C66.8326 22.7018 67.0136 22.7319 67.1946 22.7619C67.4057 22.792 67.6018 22.8221 67.7828 22.8522C67.9638 22.8823 68.0845 22.8973 68.1448 22.8973H68.4163C70.0151 22.8973 71.5686 22.8522 73.0769 22.7619C74.6154 22.6717 76.1689 22.6265 77.7376 22.6265C78.3409 22.6265 78.9291 22.6717 79.5023 22.7619C80.1056 22.8522 80.724 22.8973 81.3575 22.8973H82.3529C83.2278 22.8973 84.0875 22.8673 84.9321 22.8071C85.7768 22.7469 86.5611 22.5513 87.2851 22.2204C87.4359 22.2204 87.5716 22.1903 87.6923 22.1301C87.8431 22.0398 87.9487 21.9646 88.009 21.9044C88.0694 21.8743 88.2202 21.769 88.4615 21.5885C88.7029 21.408 88.9593 21.2124 89.2308 21.0018C89.5324 20.7611 89.7888 20.5504 90 20.3699C90.2413 20.1894 90.3922 20.069 90.4525 20.0089C90.4827 20.0089 90.5732 19.9938 90.724 19.9637C90.905 19.9336 91.086 19.9186 91.267 19.9186C91.4781 19.8885 91.6893 19.8584 91.9005 19.8283C92.1116 19.7982 92.2775 19.7832 92.3982 19.7832H92.9412C93.4238 19.7832 93.7557 19.9938 93.9367 20.415C94.1176 20.8062 94.3288 21.1973 94.5701 21.5885C94.6305 21.6788 94.736 21.8593 94.8869 22.1301C95.0679 22.4009 95.2036 22.5664 95.2941 22.6265C95.2941 22.6566 95.2941 22.777 95.2941 22.9876C95.3243 23.1982 95.3394 23.4239 95.3394 23.6646C95.3695 23.9053 95.3997 24.131 95.4299 24.3416C95.46 24.5522 95.4902 24.6726 95.5204 24.7027C95.5505 24.7929 95.6259 24.9584 95.7466 25.1991C95.8673 25.4398 95.9879 25.7106 96.1086 26.0115C96.2594 26.2823 96.3952 26.5381 96.5158 26.7788C96.6667 27.0195 96.7722 27.185 96.8326 27.2752C96.8326 27.3354 96.8627 27.5009 96.9231 27.7717C96.9834 28.0124 97.0437 28.1628 97.1041 28.223C97.1946 28.4637 97.3605 28.8699 97.6018 29.4416C97.8431 29.9832 98.0995 30.5699 98.371 31.2018C98.6425 31.8336 98.8989 32.4354 99.1403 33.0071C99.4118 33.5788 99.5928 33.985 99.6833 34.2257C99.6833 34.2858 99.6833 34.4363 99.6833 34.677C99.7134 34.8876 99.7436 35.1283 99.7738 35.3991C99.8039 35.6699 99.8341 35.9257 99.8643 36.1664C99.8944 36.4071 99.9397 36.5726 100 36.6628V37.069C100 37.8814 99.6531 38.4982 98.9593 38.9195C98.2655 39.3407 97.5566 39.5513 96.8326 39.5513C96.7119 39.5513 96.5309 39.5363 96.2896 39.5062C96.0483 39.4761 95.8974 39.4611 95.8371 39.4611C95.3544 39.0398 94.8416 38.5735 94.2986 38.0619C93.7858 37.5504 93.3635 36.9788 93.0317 36.3469C92.5189 35.3841 92.0211 34.4363 91.5385 33.5035C91.086 32.5407 90.543 31.6832 89.9095 30.931C89.276 30.1788 88.5219 29.5619 87.6471 29.0805C86.8024 28.5991 85.7466 28.3133 84.4796 28.223H78.914C78.7934 28.1628 78.5671 28.0876 78.2353 27.9973C77.9035 27.877 77.7225 27.8168 77.6923 27.8168H72.5792C72.4585 27.9071 72.2021 28.0425 71.81 28.223C71.4178 28.3735 71.1614 28.4788 71.0407 28.5389C70.9804 28.5991 70.9201 28.6442 70.8597 28.6743C70.7692 28.7646 70.724 28.8248 70.724 28.8549C70.6938 28.9451 70.6637 29.1106 70.6335 29.3513C70.6033 29.592 70.5732 29.8478 70.543 30.1186C70.5128 30.3894 70.4827 30.6451 70.4525 30.8858C70.4223 31.0965 70.4072 31.2469 70.4072 31.3372V31.6531C70.4072 31.7434 70.4223 31.9389 70.4525 32.2398C70.4827 32.5407 70.5128 32.8717 70.543 33.2327C70.6033 33.5938 70.6486 33.9248 70.6787 34.2257C70.7089 34.5265 70.724 34.7071 70.724 34.7673V35.3991C70.724 36.3018 70.6637 37.2195 70.543 38.1522C70.4525 39.085 70.4072 40.0177 70.4072 40.9504C70.4072 41.823 70.4525 42.7106 70.543 43.6133C70.6637 44.4858 70.724 45.3885 70.724 46.3212C70.724 46.6522 70.6033 46.9531 70.362 47.2239C70.1207 47.4947 70 47.7805 70 48.0814C70 48.623 70.0603 49.1646 70.181 49.7062C70.3318 50.2177 70.4072 50.7292 70.4072 51.2407V52.685C70.4072 52.685 70.3922 52.7602 70.362 52.9106C70.3318 53.031 70.2866 53.1664 70.2262 53.3168C70.1961 53.4372 70.1659 53.5726 70.1357 53.723C70.1056 53.8434 70.0905 53.9035 70.0905 53.9035V55.4832C70.0603 55.5434 70.0302 55.6637 70 55.8442C69.9698 56.0248 69.9397 56.2204 69.9095 56.431C69.8793 56.6115 69.8341 56.792 69.7738 56.9726C69.7436 57.1531 69.7134 57.2735 69.6833 57.3336C69.4419 59.8912 69.2308 62.4336 69.0498 64.9611C68.8989 67.4584 68.8235 70.0009 68.8235 72.5885V73.446C68.8235 73.777 68.8386 74.0929 68.8688 74.3938C68.8989 74.6947 68.9894 75.1009 69.1403 75.6124C69.2308 75.8832 69.3816 76.2142 69.5928 76.6053C69.8341 76.9664 70.1056 77.3274 70.4072 77.6885C70.7391 78.0496 71.0709 78.3655 71.4027 78.6363C71.7647 78.877 72.1116 78.9973 72.4434 78.9973C72.8959 78.9973 73.3333 78.9372 73.7557 78.8168C74.178 78.6664 74.6154 78.5911 75.0679 78.5911C75.5807 78.5911 76.1689 78.6363 76.8326 78.7265C77.4962 78.8168 78.1146 78.9823 78.6878 79.223C79.2911 79.4637 79.7888 79.7947 80.181 80.2159C80.6033 80.6372 80.8145 81.1938 80.8145 81.8858C80.8145 82.1867 80.7391 82.5177 80.5882 82.8788C80.4676 83.2097 80.2866 83.5257 80.0452 83.8265C79.8341 84.1274 79.5626 84.3832 79.2308 84.5938C78.9291 84.8345 78.5973 84.9699 78.2353 85C78.0845 85 77.813 84.985 77.4208 84.9549C77.0588 84.9248 76.6516 84.8947 76.1991 84.8646C75.7768 84.8345 75.3695 84.8044 74.9774 84.7743C74.5852 84.7442 74.3137 84.7142 74.1629 84.6841C74.0422 84.6841 73.816 84.6239 73.4842 84.5035C73.1825 84.4133 72.9563 84.3681 72.8054 84.3681Z" fill="#E6DDC4"/>
</svg>
